<svg width="16.000000" height="16.000000" viewBox="0 0 16 16" fill="none" xmlns="http://www.w3.org/2000/svg" xmlns:xlink="http://www.w3.org/1999/xlink">
	<desc>
			Created with Pixso.
	</desc>
	<defs/>
	<path id="Vector" d="M9.76 8L15.74 2.01C15.9 1.85 15.99 1.63 16 1.39C16 1.16 15.9 0.94 15.74 0.77L15.22 0.25C15.05 0.09 14.83 0 14.6 0C14.36 0 14.14 0.09 13.98 0.25L8 6.23L2.01 0.25C1.85 0.09 1.63 0 1.39 0C1.16 0 0.94 0.09 0.78 0.25L0.25 0.77C-0.09 1.12 -0.09 1.67 0.25 2.01L6.23 8L0.25 13.98C0.09 14.14 0 14.36 0 14.6C0 14.83 0.09 15.05 0.25 15.22L0.78 15.74C0.94 15.9 1.16 16 1.39 16C1.63 16 1.85 15.9 2.01 15.74L8 9.76L13.98 15.74C14.14 15.9 14.36 16 14.6 16L14.6 16C14.83 16 15.05 15.9 15.22 15.74L15.74 15.22C15.9 15.05 15.99 14.83 15.99 14.6C15.99 14.36 15.9 14.14 15.74 13.98L9.76 8Z" fill="#FFFFFF" fill-opacity="1.000000" fill-rule="nonzero"/>
</svg>
