<svg width="99.000000" height="99.000000" viewBox="0 0 99 99" fill="none" xmlns="http://www.w3.org/2000/svg" xmlns:xlink="http://www.w3.org/1999/xlink">
	<desc>
			Created with Pixso.
	</desc>
	<defs>
		<clipPath id="clip1_147">
			<rect rx="-0.500000" width="47.000000" height="47.000000" transform="translate(26.500000 25.500000)" fill="white" fill-opacity="0"/>
		</clipPath>
	</defs>
	<circle cx="49.500000" cy="49.500000" r="49.500000" fill="#2378C9" fill-opacity="1.000000"/>
	<circle cx="49.500000" cy="49.500000" r="46.000000" stroke="#67A9E9" stroke-opacity="1.000000" stroke-width="7.000000"/>
	<rect rx="-0.500000" width="47.000000" height="47.000000" transform="translate(26.500000 25.500000)" fill="#FFFFFF" fill-opacity="0"/>
	<g clip-path="url(#clip1_147)">
		<path d="M54.75 52.69C56.58 49.52 57.18 45.79 56.44 42.21C55.7 38.63 53.67 35.44 50.74 33.25C50.73 31.97 50.38 30.72 49.74 29.61C49.09 28.51 48.17 27.59 47.06 26.95C45.67 26.16 44.11 25.75 42.51 25.75L40.98 25.75C39.38 25.75 37.82 26.16 36.43 26.95C35.32 27.59 34.4 28.51 33.75 29.61C33.1 30.72 32.76 31.97 32.75 33.25C30.58 34.88 28.9 37.06 27.87 39.56C26.84 42.06 26.51 44.8 26.91 47.48C27.32 50.15 28.44 52.67 30.16 54.76C31.87 56.86 34.13 58.44 36.68 59.36L35.31 61.75L29 61.75C28.4 61.75 27.83 61.98 27.4 62.4C26.98 62.83 26.75 63.4 26.75 64L26.75 70C26.75 70.59 26.98 71.16 27.4 71.59C27.83 72.01 28.4 72.25 29 72.25L48.5 72.25C49.09 72.25 49.66 72.01 50.09 71.59C50.51 71.16 50.75 70.59 50.75 70L50.75 64C50.75 63.4 50.51 62.83 50.09 62.4C49.66 61.98 49.09 61.75 48.5 61.75L42.18 61.75L41.32 60.23C41.46 60.24 41.6 60.25 41.75 60.25C44.36 60.24 46.93 59.56 49.19 58.25L62.03 71.09C62.77 71.82 63.77 72.23 64.81 72.22C65.84 72.22 66.84 71.81 67.57 71.07C68.31 70.34 68.72 69.34 68.72 68.31C68.73 67.27 68.32 66.27 67.59 65.53L54.75 52.69ZM37.18 28.26C38.33 27.59 39.65 27.25 40.98 27.25L42.51 27.25C43.84 27.25 45.16 27.59 46.31 28.26C47.65 29.01 48.63 30.27 49.04 31.75C49.44 33.22 49.25 34.8 48.5 36.14L48.5 35.36C48.5 34.32 48.19 33.31 47.61 32.45L46.87 31.33C46.81 31.24 46.74 31.17 46.65 31.12C46.57 31.06 46.47 31.02 46.37 31.01C46.27 30.99 46.17 30.99 46.07 31.02C45.97 31.04 45.88 31.08 45.8 31.15L44.8 31.9C43.63 32.77 42.21 33.24 40.75 33.25L38.75 33.25C37.88 33.25 37.04 33.55 36.37 34.1C35.7 34.65 35.24 35.41 35.07 36.26C34.67 35.6 34.41 34.86 34.3 34.1C34.19 33.34 34.24 32.56 34.44 31.81C34.63 31.07 34.98 30.37 35.45 29.76C35.92 29.15 36.5 28.64 37.18 28.26ZM38.75 44.53L38.75 46.86L37.54 47.06C36.05 47.31 34.68 48.04 33.64 49.13C32.86 47.53 32.58 45.74 32.83 43.98C33.08 42.22 33.85 40.57 35.04 39.25C35.17 40.37 35.57 41.44 36.22 42.36C36.87 43.28 37.74 44.03 38.75 44.53ZM40.25 45.07C41.23 45.3 42.26 45.3 43.25 45.07L43.25 47.07C42.78 47.3 42.27 47.43 41.75 47.43C41.22 47.43 40.71 47.3 40.25 47.07L40.25 45.07ZM41.75 43.75C40.35 43.74 39.02 43.19 38.03 42.21C37.05 41.22 36.5 39.89 36.5 38.5L36.5 37C36.5 36.4 36.73 35.83 37.15 35.4C37.58 34.98 38.15 34.75 38.75 34.75L40.75 34.75C42.53 34.74 44.27 34.16 45.7 33.09L46.06 32.82L46.36 33.28C46.78 33.89 47 34.62 47 35.36L47 38.5C46.99 39.89 46.44 41.22 45.46 42.21C44.47 43.19 43.14 43.74 41.75 43.75ZM37.79 48.54L39.36 48.28C40.08 48.7 40.91 48.93 41.75 48.93C42.58 48.93 43.41 48.7 44.13 48.28L45.71 48.54C47.02 48.76 48.21 49.45 49.05 50.48C48.22 51.64 47.13 52.59 45.86 53.25C44.59 53.9 43.18 54.25 41.75 54.25C40.32 54.25 38.91 53.9 37.64 53.25C36.37 52.59 35.27 51.64 34.44 50.48C35.29 49.45 36.47 48.76 37.79 48.54ZM49.85 49.13C48.81 48.04 47.44 47.31 45.95 47.06L44.75 46.86L44.75 44.53C45.75 44.03 46.62 43.29 47.27 42.36C47.92 41.44 48.32 40.37 48.45 39.25C49.64 40.57 50.41 42.22 50.66 43.98C50.91 45.74 50.62 47.53 49.85 49.13L49.85 49.13ZM48.5 63.25C48.69 63.25 48.88 63.32 49.03 63.46C49.17 63.61 49.25 63.8 49.25 64L49.25 70C49.25 70.19 49.17 70.38 49.03 70.53C48.88 70.67 48.69 70.75 48.5 70.75L29 70.75C28.8 70.75 28.61 70.67 28.46 70.53C28.32 70.38 28.25 70.19 28.25 70L28.25 64C28.25 63.8 28.32 63.61 28.46 63.46C28.61 63.32 28.8 63.25 29 63.25L35.75 63.25C35.88 63.25 36.01 63.21 36.12 63.14C36.24 63.08 36.33 62.98 36.4 62.87L38.75 58.76L41.09 62.87C41.16 62.98 41.25 63.08 41.37 63.14C41.48 63.21 41.61 63.25 41.75 63.25L48.5 63.25ZM40.43 58.67L39.4 56.87C39.33 56.77 39.23 56.68 39.11 56.62C39 56.56 38.87 56.52 38.75 56.52C38.62 56.52 38.49 56.56 38.38 56.62C38.26 56.68 38.16 56.77 38.09 56.87L37.43 58.03C35.17 57.27 33.16 55.93 31.59 54.13C30.02 52.34 28.95 50.16 28.49 47.83C28.04 45.49 28.21 43.07 28.99 40.82C29.78 38.57 31.14 36.56 32.95 35.01C33.18 35.98 33.61 36.9 34.21 37.7L34.32 37.85C32.85 39.31 31.85 41.19 31.45 43.22C31.04 45.26 31.25 47.37 32.04 49.29C32.84 51.21 34.18 52.85 35.91 54C37.64 55.15 39.67 55.77 41.74 55.77C43.82 55.77 45.85 55.15 47.58 54C49.3 52.85 50.65 51.21 51.44 49.29C52.24 47.37 52.45 45.26 52.04 43.22C51.64 41.19 50.64 39.31 49.17 37.85L49.28 37.7C49.88 36.9 50.3 35.98 50.54 35.01C52.63 36.81 54.12 39.2 54.81 41.87C55.5 44.54 55.36 47.35 54.4 49.94C53.44 52.52 51.72 54.75 49.45 56.33C47.19 57.9 44.5 58.75 41.75 58.75C41.3 58.75 40.86 58.72 40.43 58.67ZM64.81 70.75C64.49 70.75 64.18 70.68 63.88 70.56C63.59 70.44 63.32 70.26 63.09 70.03L50.48 57.42C51.8 56.46 52.96 55.3 53.92 53.98L66.53 66.59C66.87 66.93 67.1 67.37 67.2 67.84C67.29 68.31 67.24 68.8 67.06 69.24C66.88 69.69 66.56 70.07 66.16 70.33C65.76 70.6 65.29 70.74 64.81 70.75Z" fill="#FFFFFF" fill-opacity="1.000000" fill-rule="nonzero"/>
		<path d="M59.65 34.96L58.27 39.79C58.23 39.94 58.24 40.11 58.29 40.26C58.35 40.41 58.45 40.53 58.59 40.62C58.72 40.71 58.88 40.75 59.04 40.74C59.2 40.73 59.35 40.67 59.47 40.57L63.5 37.22L67.51 40.57C67.64 40.67 67.79 40.73 67.95 40.74C68.11 40.75 68.27 40.71 68.4 40.62C68.53 40.53 68.64 40.41 68.69 40.26C68.75 40.11 68.76 39.94 68.71 39.79L67.33 34.96L70.77 31.52C70.88 31.42 70.95 31.29 70.98 31.14C71.01 31 70.99 30.85 70.93 30.71C70.88 30.57 70.78 30.46 70.66 30.37C70.54 30.29 70.39 30.25 70.25 30.25L66.21 30.25L64.17 26.16C64.1 26.04 64 25.95 63.88 25.88C63.77 25.81 63.63 25.78 63.5 25.78C63.36 25.78 63.23 25.81 63.11 25.88C63 25.95 62.9 26.04 62.83 26.16L60.78 30.25L56.75 30.25C56.6 30.25 56.45 30.29 56.33 30.37C56.21 30.45 56.11 30.57 56.05 30.71C56 30.85 55.98 31 56.01 31.14C56.04 31.29 56.11 31.42 56.21 31.53L59.65 34.96ZM61.25 31.75C61.39 31.75 61.52 31.71 61.64 31.63C61.76 31.56 61.86 31.46 61.92 31.33L63.5 28.17L65.07 31.33C65.14 31.46 65.23 31.56 65.35 31.63C65.47 31.71 65.61 31.75 65.75 31.75L68.43 31.75L65.96 34.21C65.87 34.31 65.8 34.43 65.77 34.56C65.74 34.69 65.74 34.82 65.77 34.95L66.6 37.86L63.98 35.67C63.84 35.56 63.67 35.5 63.5 35.5C63.32 35.5 63.15 35.56 63.02 35.67L60.39 37.86L61.22 34.95C61.26 34.82 61.26 34.69 61.22 34.56C61.19 34.43 61.12 34.31 61.03 34.21L58.56 31.75L61.25 31.75Z" fill="#FFFFFF" fill-opacity="1.000000" fill-rule="nonzero"/>
		<path d="M73.19 45.71C73.13 45.57 73.04 45.45 72.91 45.37C72.79 45.29 72.64 45.24 72.5 45.25L68.46 45.25L66.42 41.16C66.35 41.04 66.25 40.95 66.13 40.88C66.02 40.81 65.88 40.78 65.75 40.78C65.61 40.78 65.48 40.81 65.36 40.88C65.25 40.95 65.15 41.04 65.08 41.16L63.03 45.25L59 45.25C58.85 45.25 58.7 45.29 58.58 45.37C58.46 45.45 58.36 45.57 58.3 45.71C58.25 45.85 58.23 46 58.26 46.14C58.29 46.29 58.36 46.42 58.46 46.53L61.9 49.96L60.52 54.79C60.48 54.94 60.49 55.11 60.54 55.26C60.6 55.41 60.7 55.53 60.84 55.62C60.97 55.71 61.13 55.75 61.29 55.74C61.45 55.73 61.6 55.67 61.72 55.57L65.75 52.22L69.76 55.57C69.89 55.67 70.04 55.73 70.2 55.74C70.36 55.75 70.52 55.71 70.65 55.62C70.78 55.53 70.89 55.41 70.94 55.26C71 55.11 71.01 54.94 70.96 54.79L69.58 49.96L73.02 46.52C73.13 46.42 73.2 46.29 73.23 46.14C73.26 46 73.24 45.84 73.19 45.71ZM68.22 49.21C68.12 49.31 68.05 49.43 68.02 49.56C67.99 49.69 67.99 49.82 68.02 49.95L68.86 52.86L66.23 50.67C66.1 50.56 65.93 50.5 65.75 50.5C65.57 50.5 65.4 50.56 65.27 50.67L62.64 52.86L63.47 49.95C63.51 49.82 63.51 49.69 63.48 49.56C63.44 49.43 63.37 49.31 63.28 49.21L60.81 46.75L63.5 46.75C63.64 46.75 63.77 46.71 63.89 46.63C64.01 46.56 64.11 46.46 64.17 46.33L65.75 43.17L67.32 46.33C67.39 46.46 67.48 46.56 67.6 46.63C67.72 46.71 67.86 46.75 68 46.75L70.68 46.75L68.22 49.21Z" fill="#FFFFFF" fill-opacity="1.000000" fill-rule="nonzero"/>
		<path d="M29.75 67.75L47.75 67.75L47.75 69.25L29.75 69.25L29.75 67.75Z" fill="#FFFFFF" fill-opacity="1.000000" fill-rule="evenodd"/>
		<path d="M31.25 64.75L46.25 64.75L46.25 66.25L31.25 66.25L31.25 64.75Z" fill="#FFFFFF" fill-opacity="1.000000" fill-rule="evenodd"/>
	</g>
</svg>
