<svg width="99.000000" height="99.000000" viewBox="0 0 99 99" fill="none" xmlns="http://www.w3.org/2000/svg" xmlns:xlink="http://www.w3.org/1999/xlink">
	<desc>
			Created with Pixso.
	</desc>
	<defs>
		<clipPath id="clip1_131">
			<rect rx="-0.500000" width="47.000000" height="47.000000" transform="translate(26.500000 25.499878)" fill="white" fill-opacity="0"/>
		</clipPath>
	</defs>
	<circle cx="49.500000" cy="49.500000" r="49.500000" fill="#2378C9" fill-opacity="1.000000"/>
	<circle cx="49.500000" cy="49.500000" r="46.000000" stroke="#67A9E9" stroke-opacity="1.000000" stroke-width="7.000000"/>
	<rect rx="-0.500000" width="47.000000" height="47.000000" transform="translate(26.500000 25.499878)" fill="#FFFFFF" fill-opacity="0"/>
	<g clip-path="url(#clip1_131)">
		<path d="M46.4 55.6L37.29 46.6C36.69 46.01 35.9 45.68 35.06 45.68C34.49 45.68 33.93 45.83 33.45 46.12L33.45 35.29C33.45 34.74 33.31 34.22 33.05 33.76C33.22 33.71 33.4 33.68 33.57 33.68C34.46 33.68 35.19 34.4 35.19 35.29L35.19 43.25C35.19 43.68 35.53 44.02 35.95 44.02C36.38 44.02 36.72 43.68 36.72 43.25L36.72 35.29C36.72 33.55 35.31 32.14 33.57 32.14C32.99 32.14 32.43 32.3 31.94 32.6C31.46 32.31 30.9 32.14 30.31 32.14C28.57 32.14 27.16 33.55 27.16 35.29L27.18 50.39C27.18 51.07 27.43 52.02 27.76 52.61C27.76 52.62 27.77 52.63 27.77 52.64L37.21 67.87C37.41 68.23 37.59 68.92 37.59 69.33L37.59 72.22C37.59 72.64 37.93 72.98 38.35 72.98C38.78 72.98 39.12 72.64 39.12 72.22L39.12 69.33C39.12 68.65 38.87 67.7 38.54 67.11C38.53 67.1 38.53 67.09 38.52 67.08L29.09 51.85C28.89 51.49 28.71 50.8 28.71 50.39L28.69 35.29C28.69 34.4 29.42 33.68 30.31 33.68C31.2 33.68 31.92 34.4 31.92 35.29L31.92 48.83C31.92 48.84 31.92 48.86 31.92 48.88C31.94 49.67 32.24 50.45 32.84 51.05L40.16 58.37C40.46 58.67 40.94 58.67 41.24 58.37C41.54 58.07 41.54 57.58 41.24 57.28L33.92 49.97C33.62 49.66 33.45 49.26 33.45 48.82C33.45 48.39 33.62 47.99 33.92 47.68C34.23 47.38 34.63 47.21 35.06 47.21C35.49 47.21 35.9 47.38 36.21 47.69L45.32 56.69C46.33 57.7 47.19 59.77 47.19 61.2L47.19 72.23C47.19 72.65 47.53 72.99 47.95 72.99C48.38 72.99 48.72 72.65 48.72 72.23L48.72 61.2C48.72 59.36 47.7 56.91 46.4 55.6Z" fill="#FFFFFF" fill-opacity="1.000000" fill-rule="nonzero"/>
		<path d="M69.68 32.14C69.09 32.14 68.53 32.31 68.05 32.6C67.56 32.3 67 32.14 66.42 32.14C64.68 32.14 63.27 33.55 63.27 35.29L63.27 43.25C63.27 43.68 63.61 44.02 64.04 44.02C64.46 44.02 64.8 43.68 64.8 43.25L64.8 35.29C64.8 34.4 65.53 33.68 66.42 33.68C66.6 33.68 66.77 33.71 66.94 33.76C66.68 34.22 66.54 34.74 66.54 35.29L66.54 46.12C66.06 45.83 65.5 45.68 64.93 45.68C64.09 45.68 63.3 46.01 62.71 46.6L53.59 55.61C52.29 56.91 51.27 59.36 51.27 61.2L51.27 72.23C51.27 72.65 51.61 72.99 52.04 72.99C52.46 72.99 52.8 72.65 52.8 72.23L52.8 61.2C52.8 59.77 53.66 57.7 54.67 56.69L63.79 47.68C64.09 47.38 64.5 47.21 64.93 47.21C65.36 47.21 65.76 47.38 66.07 47.68C66.37 47.99 66.54 48.39 66.54 48.83C66.54 49.26 66.37 49.66 66.07 49.97L58.75 57.28C58.45 57.58 58.45 58.07 58.75 58.37C59.05 58.67 59.53 58.67 59.83 58.37L67.15 51.05C67.75 50.45 68.05 49.67 68.07 48.88C68.07 48.86 68.07 48.84 68.07 48.83L68.07 35.29C68.07 34.4 68.8 33.68 69.68 33.68C70.57 33.68 71.3 34.4 71.3 35.29L71.28 50.39C71.28 50.8 71.1 51.49 70.9 51.85L61.47 67.08C61.46 67.09 61.46 67.1 61.45 67.11C61.12 67.7 60.87 68.65 60.87 69.33L60.87 72.22C60.87 72.64 61.21 72.98 61.64 72.98C62.06 72.98 62.4 72.64 62.4 72.22L62.4 69.33C62.4 68.92 62.58 68.23 62.78 67.87L72.22 52.64C72.22 52.63 72.23 52.62 72.23 52.61C72.56 52.02 72.81 51.07 72.82 50.39L72.83 35.29C72.83 33.55 71.42 32.14 69.68 32.14Z" fill="#FFFFFF" fill-opacity="1.000000" fill-rule="nonzero"/>
		<path d="M60.97 30.61C61.4 30.61 61.74 30.27 61.74 29.85L61.74 25.76C61.74 25.34 61.4 24.99 60.97 24.99L39.02 24.99C38.59 24.99 38.25 25.34 38.25 25.76L38.25 29.85C38.25 30.27 38.59 30.61 39.02 30.61L39.27 30.61L39.27 32.14L39.02 32.14C38.59 32.14 38.25 32.49 38.25 32.91L38.25 36.99C38.25 37.42 38.59 37.76 39.02 37.76L39.27 37.76L39.27 39.29L39.02 39.29C38.59 39.29 38.25 39.64 38.25 40.06L38.25 44.14C38.25 44.57 38.59 44.91 39.02 44.91L60.97 44.91C61.4 44.91 61.74 44.57 61.74 44.14L61.74 40.06C61.74 39.64 61.4 39.29 60.97 39.29L60.72 39.29L60.72 37.76L60.97 37.76C61.4 37.76 61.74 37.42 61.74 36.99L61.74 32.91C61.74 32.49 61.4 32.14 60.97 32.14L60.72 32.14L60.72 30.61L60.97 30.61L60.97 30.61ZM60.21 43.38L39.78 43.38L39.78 40.82L60.21 40.82L60.21 43.38ZM60.21 36.23L56.89 36.23C56.47 36.23 56.12 36.57 56.12 36.99C56.12 37.42 56.47 37.76 56.89 37.76L59.19 37.76L59.19 39.29L40.8 39.29L40.8 37.76L53.82 37.76C54.25 37.76 54.59 37.42 54.59 36.99C54.59 36.57 54.25 36.23 53.82 36.23L39.78 36.23L39.78 33.68L60.21 33.68L60.21 36.23ZM40.8 32.14L40.8 30.61L59.19 30.61L59.19 32.14L40.8 32.14ZM60.21 29.08L39.78 29.08L39.78 26.53L60.21 26.53L60.21 29.08Z" fill="#FFFFFF" fill-opacity="1.000000" fill-rule="nonzero"/>
	</g>
</svg>
