<svg width="99.000000" height="99.000000" viewBox="0 0 99 99" fill="none" xmlns="http://www.w3.org/2000/svg" xmlns:xlink="http://www.w3.org/1999/xlink">
	<desc>
			Created with Pixso.
	</desc>
	<defs>
		<clipPath id="clip1_112">
			<rect rx="-0.500000" width="47.000000" height="47.000000" transform="translate(26.500000 25.499878)" fill="white" fill-opacity="0"/>
		</clipPath>
	</defs>
	<circle cx="49.500000" cy="49.500000" r="49.500000" fill="#2378C9" fill-opacity="1.000000"/>
	<circle cx="49.500000" cy="49.500000" r="46.000000" stroke="#67A9E9" stroke-opacity="1.000000" stroke-width="7.000000"/>
	<rect rx="-0.500000" width="47.000000" height="47.000000" transform="translate(26.500000 25.499878)" fill="#FFFFFF" fill-opacity="0"/>
	<g clip-path="url(#clip1_112)">
		<path d="M68.87 34.18L70.36 34.18C70.87 34.18 71.29 33.76 71.29 33.24C71.29 32.72 70.87 32.3 70.36 32.3L66.8 32.3C66.28 32.3 65.86 32.72 65.86 33.24L65.86 36.8C65.86 37.32 66.28 37.74 66.8 37.74C67.31 37.74 67.73 37.32 67.73 36.8L67.73 35.77C70.58 39.57 72.12 44.19 72.12 48.99C72.12 61.2 62.2 71.12 50 71.12C37.79 71.12 27.87 61.2 27.87 48.99C27.87 36.79 37.79 26.87 50 26.87C50.9 26.87 51.81 26.92 52.69 27.03C53.21 27.09 53.68 26.73 53.74 26.21C53.8 25.7 53.43 25.23 52.92 25.17C51.96 25.05 50.97 24.99 50 24.99C43.58 24.99 37.56 27.49 33.02 32.02C28.49 36.56 26 42.58 26 48.99C26 55.41 28.49 61.43 33.02 65.97C37.56 70.5 43.58 72.99 50 72.99C56.41 72.99 62.43 70.5 66.97 65.97C71.5 61.43 74 55.41 74 48.99C74 43.59 72.19 38.39 68.87 34.18Z" fill="#FFFFFF" fill-opacity="1.000000" fill-rule="nonzero"/>
		<path d="M36.16 39.14C35.72 38.87 35.14 39 34.86 39.43C32.73 42.81 31.78 46.87 32.2 50.87C32.62 54.93 34.45 58.76 37.34 61.65C40.83 65.14 45.41 66.88 50 66.88C54.58 66.88 59.16 65.14 62.65 61.65C69.63 54.67 69.63 43.32 62.65 36.34C59.76 33.46 55.94 31.63 51.89 31.2C47.9 30.78 43.84 31.72 40.46 33.85C40.03 34.12 39.9 34.7 40.17 35.14C40.45 35.58 41.03 35.71 41.46 35.43C47.83 31.42 56 32.34 61.32 37.67C67.57 43.91 67.57 54.08 61.32 60.32C55.08 66.57 44.91 66.57 38.67 60.32C33.41 55.07 32.48 46.7 36.45 40.44C36.72 40 36.59 39.42 36.16 39.14Z" fill="#FFFFFF" fill-opacity="1.000000" fill-rule="nonzero"/>
		<path d="M62.17 49.95L63.33 49.95C63.85 49.95 64.27 49.53 64.27 49.01C64.27 48.49 63.85 48.07 63.33 48.07L62.17 48.07C61.66 48.07 61.24 48.49 61.24 49.01C61.24 49.53 61.66 49.95 62.17 49.95Z" fill="#FFFFFF" fill-opacity="1.000000" fill-rule="nonzero"/>
		<path d="M35.72 48.98C35.72 49.5 36.14 49.92 36.66 49.92L37.82 49.92C38.33 49.92 38.75 49.5 38.75 48.98C38.75 48.46 38.33 48.04 37.82 48.04L36.66 48.04C36.14 48.04 35.72 48.46 35.72 48.98Z" fill="#FFFFFF" fill-opacity="1.000000" fill-rule="nonzero"/>
		<path d="M50.95 36.82L50.95 35.66C50.95 35.14 50.53 34.72 50.01 34.72C49.49 34.72 49.07 35.14 49.07 35.66L49.07 36.82C49.07 37.33 49.49 37.75 50.01 37.75C50.53 37.75 50.95 37.33 50.95 36.82Z" fill="#FFFFFF" fill-opacity="1.000000" fill-rule="nonzero"/>
		<path d="M49.04 61.17L49.04 62.33C49.04 62.85 49.46 63.27 49.98 63.27C50.5 63.27 50.92 62.85 50.92 62.33L50.92 61.17C50.92 60.66 50.5 60.24 49.98 60.24C49.46 60.24 49.04 60.66 49.04 61.17Z" fill="#FFFFFF" fill-opacity="1.000000" fill-rule="nonzero"/>
		<path d="M45.3 42.97C44.93 42.61 44.34 42.61 43.97 42.97C43.61 43.34 43.61 43.93 43.97 44.3L47.15 47.47C46.91 47.93 46.77 48.45 46.77 48.99C46.77 50.77 48.22 52.22 50 52.22C51.77 52.22 53.22 50.77 53.22 48.99C53.22 48.45 53.08 47.93 52.84 47.47L59.25 41.07C59.61 40.7 59.61 40.11 59.25 39.74C58.88 39.38 58.29 39.38 57.92 39.74L51.52 46.15C51.06 45.91 50.54 45.77 50 45.77C49.45 45.77 48.93 45.91 48.47 46.15L45.3 42.97ZM51.35 48.99C51.35 49.74 50.74 50.35 50 50.35C49.25 50.35 48.64 49.74 48.64 48.99C48.64 48.25 49.25 47.64 50 47.64C50.74 47.64 51.35 48.25 51.35 48.99Z" fill="#FFFFFF" fill-opacity="1.000000" fill-rule="nonzero"/>
		<path d="M38.67 37.67C38.84 37.49 38.94 37.25 38.94 37C38.94 36.76 38.84 36.52 38.67 36.34C38.49 36.17 38.25 36.07 38 36.07C37.76 36.07 37.52 36.17 37.34 36.34C37.17 36.52 37.07 36.76 37.07 37C37.07 37.25 37.17 37.49 37.34 37.67C37.52 37.84 37.76 37.94 38 37.94C38.25 37.94 38.49 37.84 38.67 37.67Z" fill="#FFFFFF" fill-opacity="1.000000" fill-rule="nonzero"/>
		<path d="M56.48 27.79C56.73 27.79 56.97 27.69 57.15 27.52C57.32 27.35 57.42 27.1 57.42 26.86C57.42 26.61 57.32 26.37 57.15 26.19C56.97 26.02 56.73 25.92 56.48 25.92C56.24 25.92 56 26.02 55.82 26.19C55.65 26.37 55.55 26.61 55.55 26.86C55.55 27.1 55.65 27.35 55.82 27.52C56 27.69 56.24 27.79 56.48 27.79Z" fill="#FFFFFF" fill-opacity="1.000000" fill-rule="nonzero"/>
	</g>
</svg>
