<svg width="25.000000" height="25.000000" viewBox="0 0 25 25" fill="none" xmlns="http://www.w3.org/2000/svg" xmlns:xlink="http://www.w3.org/1999/xlink">
	<desc>
			Created with Pixso.
	</desc>
	<defs>
		<clipPath id="clip5_15">
			<rect rx="-0.500000" width="24.000000" height="24.000000" transform="translate(0.500000 0.500000)" fill="white" fill-opacity="0"/>
		</clipPath>
	</defs>
	<rect rx="-0.500000" width="24.000000" height="24.000000" transform="translate(0.500000 0.500000)" fill="#FFFFFF" fill-opacity="0"/>
	<g clip-path="url(#clip5_15)">
		<circle cx="12.500000" cy="12.500000" r="12.500000" fill="#5EB8F0" fill-opacity="1.000000"/>
		<path d="M16.89 8.04L7.52 8.04C7.23 8.04 7 7.8 7 7.52C7 7.23 7.23 7 7.52 7L16.89 7C17.18 7 17.41 7.23 17.41 7.52C17.41 7.8 17.18 8.04 16.89 8.04Z" fill="#FFFFFF" fill-opacity="1.000000" fill-rule="nonzero"/>
		<path d="M16.89 12.72L7.52 12.72C7.23 12.72 7 12.49 7 12.2C7 11.92 7.23 11.68 7.52 11.68L16.89 11.68C17.18 11.68 17.41 11.92 17.41 12.2C17.41 12.49 17.18 12.72 16.89 12.72Z" fill="#FFFFFF" fill-opacity="1.000000" fill-rule="nonzero"/>
		<path d="M16.89 17.41L7.52 17.41C7.23 17.41 7 17.18 7 16.89C7 16.6 7.23 16.37 7.52 16.37L16.89 16.37C17.18 16.37 17.41 16.6 17.41 16.89C17.41 17.18 17.18 17.41 16.89 17.41Z" fill="#FFFFFF" fill-opacity="1.000000" fill-rule="nonzero"/>
	</g>
</svg>
