<svg width="18.000000" height="23.000000" viewBox="0 0 18 23" fill="none" xmlns="http://www.w3.org/2000/svg" xmlns:xlink="http://www.w3.org/1999/xlink">
	<desc>
			Created with Pixso.
	</desc>
	<defs>
		<clipPath id="clip1_24">
			<rect id="location-unfill 1" rx="-0.500000" width="17.000000" height="22.000000" transform="translate(0.500000 0.500000)" fill="white" fill-opacity="0"/>
		</clipPath>
	</defs>
	<rect id="location-unfill 1" rx="-0.500000" width="17.000000" height="22.000000" transform="translate(0.500000 0.500000)" fill="#FFFFFF" fill-opacity="0"/>
	<g clip-path="url(#clip1_24)">
		<path id="Vector" d="M8.43 22.69C8.56 22.88 8.77 23 9 23C9.22 23 9.43 22.88 9.56 22.69C11.16 20.3 13.53 17.35 15.17 14.34C16.49 11.94 17.13 9.89 17.13 8.08C17.13 3.62 13.48 0 9 0C4.51 0 0.86 3.62 0.86 8.08C0.86 9.89 1.5 11.94 2.82 14.34C4.46 17.35 6.83 20.31 8.43 22.69ZM9 1.34C12.73 1.34 15.78 4.37 15.78 8.08C15.78 9.66 15.19 11.5 13.98 13.7C12.56 16.29 10.54 18.92 9 21.12C7.45 18.92 5.43 16.29 4.01 13.7C2.8 11.5 2.21 9.66 2.21 8.08C2.21 4.37 5.26 1.34 9 1.34Z" fill="#FFFFFF" fill-opacity="1.000000" fill-rule="nonzero"/>
		<path id="Vector" d="M9 12.12C11.24 12.12 13.06 10.31 13.06 8.08C13.06 5.85 11.24 4.04 9 4.04C6.75 4.04 4.93 5.85 4.93 8.08C4.93 10.31 6.75 12.12 9 12.12ZM9 5.39C10.49 5.39 11.71 6.59 11.71 8.08C11.71 9.57 10.49 10.78 9 10.78C7.5 10.78 6.28 9.57 6.28 8.08C6.28 6.59 7.5 5.39 9 5.39Z" fill="#FFFFFF" fill-opacity="1.000000" fill-rule="nonzero"/>
	</g>
</svg>
