<svg width="21.000000" height="15.000019" viewBox="0 0 21 15" fill="none" xmlns="http://www.w3.org/2000/svg" xmlns:xlink="http://www.w3.org/1999/xlink">
	<desc>
			Created with Pixso.
	</desc>
	<defs/>
	<path id="Vector" d="M19.03 0L1.96 0C0.88 0 0 0.84 0 1.87L0 13.12C0 14.15 0.88 15 1.96 15L19.03 15C20.11 15 21 14.15 21 13.12L21 1.87C21 0.84 20.11 0 19.03 0ZM19.03 1.24C19.12 1.24 19.2 1.26 19.28 1.29L10.5 8.54L1.71 1.29C1.79 1.26 1.87 1.24 1.96 1.24L19.03 1.24ZM19.03 13.75L1.96 13.75C1.6 13.75 1.31 13.46 1.31 13.12L1.31 2.61L10.06 9.84C10.19 9.94 10.34 10 10.5 10C10.65 10 10.8 9.94 10.93 9.84L19.68 2.61L19.68 13.12C19.68 13.46 19.39 13.75 19.03 13.75Z" fill="#FFFFFF" fill-opacity="1.000000" fill-rule="nonzero"/>
</svg>
