<svg width="16.000000" height="16.000000" viewBox="0 0 16 16" fill="none" xmlns="http://www.w3.org/2000/svg" xmlns:xlink="http://www.w3.org/1999/xlink">
	<desc>
			Created with Pixso.
	</desc>
	<defs>
		<clipPath id="clip1_11">
			<rect id="phone-unfill (1) 1" rx="-0.500000" width="15.000000" height="15.000000" transform="translate(0.500000 0.500000)" fill="white" fill-opacity="0"/>
		</clipPath>
	</defs>
	<rect id="phone-unfill (1) 1" rx="-0.500000" width="15.000000" height="15.000000" transform="translate(0.500000 0.500000)" fill="#FFFFFF" fill-opacity="0"/>
	<g clip-path="url(#clip1_11)">
		<path id="Vector" d="M3.26 10.63C4.83 12.52 6.73 14 8.9 15.05C9.73 15.44 10.83 15.91 12.06 15.99C12.14 15.99 12.21 16 12.29 16C13.11 16 13.78 15.71 14.32 15.12C14.32 15.12 14.33 15.11 14.33 15.11C14.52 14.87 14.74 14.67 14.97 14.44C15.12 14.29 15.28 14.14 15.44 13.98C16.14 13.24 16.14 12.31 15.43 11.6L13.44 9.6C13.1 9.25 12.69 9.07 12.27 9.07C11.85 9.07 11.44 9.25 11.09 9.6L9.9 10.79C9.79 10.72 9.68 10.67 9.57 10.61C9.44 10.55 9.32 10.48 9.21 10.42C8.13 9.73 7.15 8.83 6.21 7.68C5.74 7.08 5.42 6.58 5.19 6.07C5.51 5.78 5.8 5.49 6.08 5.2C6.18 5.1 6.28 4.99 6.39 4.89C6.74 4.53 6.94 4.12 6.94 3.7C6.94 3.28 6.75 2.86 6.39 2.5L5.4 1.52C5.28 1.4 5.17 1.29 5.06 1.17C4.84 0.95 4.61 0.71 4.39 0.51C4.04 0.17 3.64 0 3.22 0C2.8 0 2.39 0.17 2.04 0.51L0.8 1.75C0.35 2.2 0.09 2.75 0.04 3.38C-0.02 4.17 0.12 5.01 0.5 6.03C1.08 7.61 1.96 9.07 3.26 10.63ZM0.85 3.45C0.89 3.01 1.06 2.64 1.38 2.32L2.61 1.09C2.8 0.9 3.01 0.81 3.22 0.81C3.42 0.81 3.63 0.9 3.82 1.1C4.04 1.3 4.25 1.52 4.47 1.75C4.58 1.86 4.7 1.98 4.82 2.1L5.8 3.08C6.01 3.29 6.12 3.5 6.12 3.7C6.12 3.91 6.01 4.12 5.8 4.32C5.7 4.43 5.6 4.53 5.5 4.64C5.19 4.95 4.9 5.24 4.58 5.53C4.57 5.53 4.57 5.53 4.56 5.54C4.29 5.82 4.33 6.08 4.4 6.28C4.4 6.29 4.41 6.29 4.41 6.3C4.66 6.92 5.02 7.5 5.57 8.2C6.57 9.42 7.62 10.38 8.77 11.11C8.91 11.2 9.06 11.27 9.21 11.35C9.34 11.41 9.46 11.48 9.57 11.55C9.58 11.55 9.59 11.56 9.61 11.57C9.72 11.62 9.82 11.65 9.93 11.65C10.19 11.65 10.37 11.48 10.42 11.42L11.66 10.18C11.86 9.99 12.06 9.89 12.27 9.89C12.52 9.89 12.73 10.04 12.86 10.18L14.86 12.18C15.25 12.58 15.25 13.01 14.85 13.43C14.71 13.58 14.56 13.72 14.4 13.87C14.17 14.1 13.93 14.33 13.71 14.59C13.33 15 12.88 15.19 12.29 15.19C12.23 15.19 12.17 15.19 12.12 15.19C11.03 15.12 10.02 14.69 9.26 14.33C7.2 13.33 5.39 11.92 3.89 10.12C2.65 8.63 1.82 7.25 1.27 5.76C0.92 4.85 0.8 4.12 0.85 3.45Z" fill="#FFFFFF" fill-opacity="1.000000" fill-rule="nonzero"/>
	</g>
</svg>
