<svg width="84.480957" height="64.499023" viewBox="0 0 84.481 64.499" fill="none" xmlns="http://www.w3.org/2000/svg" xmlns:xlink="http://www.w3.org/1999/xlink">
	<desc>
			Created with Pixso.
	</desc>
	<defs/>
	<path d="M7.59 59.28C2.84 54.06 0 48.37 0 38.88C0 22.29 11.86 7.58 28.47 0L32.74 6.16C17.08 14.7 13.76 25.6 12.81 32.72C15.18 31.3 18.5 30.82 21.83 31.3C30.37 32.24 37.01 38.88 37.01 47.89C37.01 52.16 35.12 56.43 32.27 59.75C28.95 63.07 25.15 64.49 20.4 64.49C15.18 64.49 10.44 62.12 7.59 59.28ZM55.05 59.28C50.3 54.06 47.46 48.37 47.46 38.88C47.46 22.29 59.32 7.58 75.93 0L80.2 6.16C64.54 14.7 61.22 25.6 60.27 32.72C62.64 31.3 65.97 30.82 69.29 31.3C77.83 32.24 84.48 38.88 84.48 47.89C84.48 52.16 82.58 56.43 79.73 59.75C76.88 63.07 72.61 64.49 67.86 64.49C62.64 64.49 57.9 62.12 55.05 59.28Z" fill="#302D2D" fill-opacity="0.040000" fill-rule="nonzero"/>
</svg>
