<svg width="21.999878" height="19.138140" viewBox="0 0 21.9999 19.1381" fill="none" xmlns="http://www.w3.org/2000/svg" xmlns:xlink="http://www.w3.org/1999/xlink">
	<desc>
			Created with Pixso.
	</desc>
	<defs/>
	<path id="Vector" d="M21.9 3.27C21.77 3.06 21.53 2.94 21.28 2.96L20.18 3.06L21.23 0.94C21.36 0.69 21.31 0.39 21.11 0.19C20.91 -0.01 20.61 -0.06 20.36 0.06L17.58 1.42C15.87 0.52 13.73 0.78 12.25 2.13C11.02 3.25 10.37 4.97 10.5 6.69C7.28 6.37 4.56 4.53 2.95 1.55C2.84 1.36 2.64 1.23 2.42 1.21C2.19 1.2 1.98 1.3 1.84 1.48C0.85 2.82 0.78 4.67 1.56 6.19C1.34 6.14 1.11 6.07 0.86 5.98C0.64 5.91 0.4 5.95 0.23 6.1C0.05 6.25 -0.03 6.48 0 6.71C0.31 8.59 1.41 10.03 3.14 10.88C2.91 10.96 2.68 11.03 2.45 11.07C2.22 11.12 2.03 11.29 1.96 11.52C1.89 11.74 1.94 11.99 2.1 12.16C3.35 13.5 5.15 14.15 6.43 14.47C4.97 15.6 3.4 15.79 1.13 15.72C0.86 15.71 0.62 15.86 0.51 16.09C0.4 16.33 0.44 16.62 0.62 16.81C1.57 17.86 5.03 19.04 8.67 19.13C8.81 19.13 8.96 19.13 9.11 19.13C11.66 19.13 15.04 18.59 17.46 16.16C19.29 14.33 20.44 12.22 20.87 9.89C21.22 8 21 6.5 20.89 5.77C20.89 5.72 20.88 5.66 20.87 5.61L21.9 3.96C22.03 3.75 22.03 3.48 21.9 3.27ZM19.59 5.96C19.79 7.3 20.38 11.39 16.53 15.23C14.3 17.47 11.04 17.87 8.7 17.82C6.7 17.77 4.92 17.39 3.62 16.95C4.15 16.89 4.62 16.79 5.06 16.65C6.28 16.27 7.31 15.59 8.3 14.5C8.46 14.32 8.51 14.07 8.43 13.84C8.34 13.61 8.14 13.44 7.9 13.41C7.27 13.33 5.39 13.01 3.91 11.99C4.34 11.82 4.75 11.6 5.14 11.34C5.36 11.2 5.47 10.94 5.43 10.69C5.38 10.43 5.2 10.22 4.95 10.16C3.73 9.84 2.27 9.13 1.6 7.54C2.03 7.62 2.5 7.64 3 7.53C3.23 7.47 3.41 7.3 3.48 7.07C3.55 6.85 3.49 6.6 3.32 6.43C2.49 5.56 2.17 4.31 2.44 3.24C3.32 4.53 4.44 5.61 5.72 6.41C7.35 7.44 9.27 8 11.24 8.05C11.44 8.05 11.64 7.97 11.77 7.81C11.89 7.65 11.94 7.45 11.9 7.25C11.56 5.72 12.04 4.09 13.13 3.1C14.27 2.07 15.94 1.91 17.2 2.72C17.4 2.84 17.64 2.85 17.84 2.75L19.2 2.09L18.49 3.52C18.38 3.73 18.4 3.99 18.54 4.18C18.67 4.38 18.9 4.49 19.14 4.46L20.09 4.38L19.65 5.09C19.5 5.33 19.53 5.54 19.59 5.96Z" fill="#FFFFFF" fill-opacity="1.000000" fill-rule="nonzero"/>
</svg>
