<svg width="22.000000" height="22.000000" viewBox="0 0 22 22" fill="none" xmlns="http://www.w3.org/2000/svg" xmlns:xlink="http://www.w3.org/1999/xlink">
	<desc>
			Created with Pixso.
	</desc>
	<defs>
		<clipPath id="clip1_40">
			<rect id="vk-unfill 1" rx="-0.500000" width="21.000000" height="21.000000" transform="translate(0.500000 0.500000)" fill="white" fill-opacity="0"/>
		</clipPath>
	</defs>
	<rect id="vk-unfill 1" rx="-0.500000" width="21.000000" height="21.000000" transform="translate(0.500000 0.500000)" fill="#FFFFFF" fill-opacity="0"/>
	<g clip-path="url(#clip1_40)">
		<path id="Vector" d="M11.13 17.87C14.31 17.87 13.18 15.86 13.42 15.28C13.42 14.84 13.41 14.43 13.43 14.17C13.63 14.23 14.11 14.47 15.09 15.43C16.61 16.96 16.99 17.87 18.22 17.87L20.48 17.87C21.19 17.87 21.56 17.57 21.75 17.33C21.93 17.09 22.1 16.66 21.91 16.01C21.41 14.43 18.47 11.7 18.29 11.41C18.32 11.36 18.36 11.29 18.39 11.25L18.38 11.25C18.96 10.48 21.17 7.17 21.5 5.85C21.5 5.84 21.5 5.84 21.5 5.84C21.68 5.23 21.52 4.84 21.35 4.62C21.1 4.29 20.7 4.12 20.16 4.12L17.9 4.12C17.15 4.12 16.57 4.5 16.28 5.19C15.8 6.43 14.44 8.96 13.42 9.86C13.38 8.59 13.41 7.62 13.42 6.9C13.46 5.49 13.56 4.12 12.1 4.12L8.56 4.12C7.64 4.12 6.77 5.12 7.71 6.31C8.54 7.34 8.01 7.92 8.19 10.81C7.49 10.06 6.25 8.04 5.38 5.46C5.13 4.77 4.76 4.12 3.71 4.12L1.46 4.12C0.54 4.12 0 4.62 0 5.45C0 7.33 4.15 17.87 11.13 17.87ZM3.71 5.5C3.91 5.5 3.93 5.5 4.08 5.91C4.98 8.56 6.99 12.47 8.46 12.47C9.56 12.47 9.56 11.34 9.56 10.91L9.56 7.52C9.5 6.39 9.09 5.83 8.83 5.5L12.04 5.5C12.04 5.51 12.02 9.25 12.05 10.16C12.05 11.44 13.07 12.18 14.67 10.57C16.35 8.67 17.51 5.83 17.56 5.72C17.63 5.55 17.69 5.5 17.9 5.5L20.16 5.5L20.17 5.5C20.17 5.5 20.17 5.5 20.17 5.5C19.96 6.47 17.92 9.53 17.24 10.49C17.23 10.5 17.22 10.52 17.21 10.53C16.91 11.02 16.67 11.56 17.25 12.32L17.25 12.32C17.31 12.39 17.44 12.54 17.65 12.75C18.27 13.39 20.42 15.61 20.61 16.49C20.49 16.51 20.35 16.49 18.22 16.5C17.77 16.5 17.41 15.82 16.06 14.45C14.84 13.27 14.05 12.78 13.33 12.78C11.93 12.78 12.03 13.92 12.05 15.29C12.05 16.78 12.04 16.31 12.05 16.4C11.97 16.43 11.74 16.5 11.13 16.5C5.31 16.5 1.52 7.26 1.38 5.5C1.43 5.49 2.12 5.5 3.71 5.5Z" fill="#FFFFFF" fill-opacity="1.000000" fill-rule="nonzero"/>
	</g>
</svg>
